<?xml version="1.0" encoding="UTF-8" standalone="no"?>
<!-- Created with Inkscape (http://www.inkscape.org/) -->

<svg
   xmlns:dc="http://purl.org/dc/elements/1.1/"
   xmlns:cc="http://creativecommons.org/ns#"
   xmlns:rdf="http://www.w3.org/1999/02/22-rdf-syntax-ns#"
   xmlns:svg="http://www.w3.org/2000/svg"
   xmlns="http://www.w3.org/2000/svg"
   xmlns:sodipodi="http://sodipodi.sourceforge.net/DTD/sodipodi-0.dtd"
   xmlns:inkscape="http://www.inkscape.org/namespaces/inkscape"
   version="1.1"
   id="svg10"
   width="973.33331"
   height="682.66669"
   viewBox="0 0 973.33332 682.66668"
   sodipodi:docname="ontoiqa-logo-text.svg"
   inkscape:version="0.92.4 (5da689c313, 2019-01-14)"
   style="enable-background:new">
  <metadata
     id="metadata16">
    <rdf:RDF>
      <cc:Work
         rdf:about="">
        <dc:format>image/svg+xml</dc:format>
        <dc:type
           rdf:resource="http://purl.org/dc/dcmitype/StillImage" />
        <dc:title></dc:title>
      </cc:Work>
    </rdf:RDF>
  </metadata>
  <defs
     id="defs14" />
  <sodipodi:namedview
     pagecolor="#ffffff"
     bordercolor="#666666"
     borderopacity="1"
     objecttolerance="10"
     gridtolerance="10"
     guidetolerance="10"
     inkscape:pageopacity="0"
     inkscape:pageshadow="2"
     inkscape:window-width="1920"
     inkscape:window-height="1001"
     id="namedview12"
     showgrid="false"
     inkscape:zoom="1.173991"
     inkscape:cx="429.54094"
     inkscape:cy="357.84846"
     inkscape:window-x="-9"
     inkscape:window-y="-9"
     inkscape:window-maximized="1"
     inkscape:current-layer="layer5"
     showguides="false" />
  <g
     inkscape:groupmode="layer"
     id="layer5"
     inkscape:label="background"
     transform="translate(0,-290.66663)">
    <path
       style="fill:#aaaaff;fill-opacity:1;stroke:#d3bc5f;stroke-width:0.60231024;stroke-miterlimit:4;stroke-dasharray:none"
       d=""
       id="path4821"
       inkscape:connector-curvature="0" />
    <path
       style="fill:#2a7fff;fill-opacity:1;stroke:#d3bc5f;stroke-width:0.85179526;stroke-miterlimit:4;stroke-dasharray:none"
       d=""
       id="path4841"
       inkscape:connector-curvature="0" />
    <path
       style="fill:#2a7fff;fill-opacity:1;stroke:#d3bc5f;stroke-width:0.85179526;stroke-miterlimit:4;stroke-dasharray:none"
       d=""
       id="path4845"
       inkscape:connector-curvature="0" />
    <path
       style="fill:#2a7fff;fill-opacity:1;stroke:#d3bc5f;stroke-width:0.15057756;stroke-miterlimit:4;stroke-dasharray:none"
       d=""
       id="path4849"
       inkscape:connector-curvature="0" />
    <path
       style="fill:#2a7fff;fill-opacity:1;stroke:#d3bc5f;stroke-width:0.15057756;stroke-miterlimit:4;stroke-dasharray:none"
       d=""
       id="path4857"
       inkscape:connector-curvature="0" />
    <path
       style="fill:#2a7fff;fill-opacity:1;stroke:#d3bc5f;stroke-width:0.15057756;stroke-miterlimit:4;stroke-dasharray:none"
       d=""
       id="path4859"
       inkscape:connector-curvature="0" />
    <path
       style="fill:#2a7fff;fill-opacity:1;stroke:#d3bc5f;stroke-width:0.15057756;stroke-miterlimit:4;stroke-dasharray:none"
       d=""
       id="path4871"
       inkscape:connector-curvature="0" />
    <path
       style="fill:#2a7fff;fill-opacity:1;stroke:#d3bc5f;stroke-width:0.15057756;stroke-miterlimit:4;stroke-dasharray:none"
       d=""
       id="path4885"
       inkscape:connector-curvature="0" />
    <path
       style="fill:#2a7fff;fill-opacity:1;stroke:#d3bc5f;stroke-width:0.15057756;stroke-miterlimit:4;stroke-dasharray:none"
       d=""
       id="path4887"
       inkscape:connector-curvature="0" />
    <g
       id="g5831"
       style="stroke:#502d16">
      <path
         sodipodi:nodetypes="ccccccccccc"
         inkscape:connector-curvature="0"
         id="path5506"
         d="m 336.38365,586.54679 c 3.44757,-13.36474 12.63115,-24.64525 31.5558,-32.38637 l 499.91028,-0.70401 c 36.45671,0.20418 37.06664,14.59158 41.52055,27.45793 l 2.49119,110.5358 c -5.54721,17.14609 -22.14434,29.17676 -33.21671,33.09031 l -498.2489,2.11219 c -13.70245,-0.76254 -19.96475,-4.6791 -24.91241,-9.15264 -22.55652,8.96023 -26.07905,7.83455 -31.5562,7.74451 l 14.11739,-12.67289 z"
         style="fill:#ffffff;stroke:#502d16;stroke-width:0.89766479px;stroke-linecap:butt;stroke-linejoin:miter;stroke-opacity:1;enable-background:new" />
      <text
         transform="scale(0.98619709,1.0139961)"
         id="text5610"
         y="680.23218"
         x="342.62463"
         style="font-style:normal;font-weight:normal;font-size:135.59536743px;line-height:1.25;font-family:sans-serif;letter-spacing:0px;word-spacing:0px;fill:#cdde87;fill-opacity:1;stroke:#502d16;stroke-width:3.38988471;enable-background:new"
         xml:space="preserve"><tspan
           style="stroke-width:3.38988471;fill:#cdde87;stroke:#502d16"
           y="680.23218"
           x="342.62463"
           id="tspan5608"
           sodipodi:role="line">OntoIQA</tspan></text>
    </g>
    <g
       id="g5839"
       style="stroke:#a05a2c">
      <path
         inkscape:connector-curvature="0"
         id="path5508"
         d="m 764.18654,783.43925 c -0.82738,-0.13373 -2.07738,-0.53863 -2.77759,-0.89994 -1.39342,-0.71917 -3.77743,-3.19687 -4.19602,-4.36103 -0.14536,-0.40434 -0.46291,-1.05245 -0.70558,-1.44026 -0.81723,-1.30572 -1.52425,-3.4597 -1.81865,-5.54026 -0.19784,-1.39869 -0.30541,-5.91196 -0.33239,-13.95439 -0.0336,-9.98908 0.0209,-12.25761 0.33989,-14.20793 0.20875,-1.27647 0.45979,-2.43934 0.55763,-2.58416 0.0979,-0.14478 0.31579,-0.72838 0.48408,-1.2969 0.16847,-0.56852 0.77396,-1.90304 1.34572,-2.96562 0.86382,-1.60494 1.41655,-2.21027 3.26524,-3.5761 1.89701,-1.40134 2.52407,-1.68869 4.24679,-1.94565 1.11218,-0.16596 27.21597,-0.26209 58.03518,-0.21396 l 56.01392,0.0874 1.62034,1.00298 c 1.70717,1.05678 3.14577,2.32893 3.92844,3.47365 0.68708,1.0051 2.20521,4.06546 2.20521,4.44532 0,0.17955 0.14387,0.5715 0.31976,0.87068 0.17592,0.29916 0.48834,1.56165 0.6944,2.80555 0.31755,1.91725 0.37542,4.69784 0.37976,18.26128 0.01,17.51474 -0.0686,16.46307 1.38926,19.83195 0.27097,0.62631 0.40196,1.32222 0.31341,1.66554 -0.12225,0.47369 -0.19459,0.49925 -0.36882,0.13025 -0.1735,-0.36762 -0.24078,-0.37151 -0.3365,-0.0191 -0.16997,0.6258 -1.46594,0.20224 -3.05712,-0.99931 -0.71584,-0.5405 -1.4231,-0.98473 -1.57155,-0.98711 -0.14853,-10e-4 -0.30757,-0.1719 -0.35347,-0.37657 -0.0793,-0.35349 -1.27515,0.20443 -1.5754,0.73487 -0.0636,0.11268 -0.32407,0.33309 -0.57864,0.49038 -0.25464,0.15715 -0.98371,0.6051 -1.62031,0.99539 -1.15668,0.70924 -1.18297,0.7096 -57.74987,0.76291 -31.12593,0.0289 -57.26959,-0.056 -58.09712,-0.18967 z"
         style="fill:#803f23;fill-opacity:1;stroke-width:0.28240201;enable-background:new;stroke:#a05a2c" />
      <text
         id="text5777"
         y="769.69543"
         x="781.56342"
         style="font-style:normal;font-weight:normal;font-size:40px;line-height:1.25;font-family:sans-serif;letter-spacing:0px;word-spacing:0px;fill:#ffffff;fill-opacity:1;stroke:#a05a2c"
         xml:space="preserve"><tspan
           y="769.69543"
           x="781.56342"
           id="tspan5775"
           sodipodi:role="line">Bot</tspan></text>
    </g>
  </g>
  <g
     inkscape:groupmode="layer"
     id="layer3"
     inkscape:label="book_pages"
     style="display:inline"
     transform="translate(0,-290.66663)" />
  <g
     inkscape:groupmode="layer"
     id="layer2"
     inkscape:label="book_pages_shadow"
     style="display:inline"
     transform="translate(0,-290.66663)" />
  <g
     inkscape:groupmode="layer"
     id="layer4"
     inkscape:label="book_cover"
     style="display:inline"
     transform="translate(0,-290.66663)" />
  <g
     id="g5379"
     transform="matrix(0.64049826,0,0,0.72784746,-211.84148,-192.75844)">
    <path
       sodipodi:nodetypes="cccccccc"
       inkscape:connector-curvature="0"
       id="path3746"
       d="m 451.79572,675.74192 40.9571,-15.66007 v 0 c 52.11543,5.77494 73.35201,30.84916 101.18811,51.79868 l 24.09241,30.11551 v 0 l -25.29703,2.40924 C 560.13758,710.7314 510.01117,690.20327 451.79572,675.74192 Z"
       style="display:inline;fill:#f0ecac;fill-opacity:1;stroke:#806600;stroke-width:1px;stroke-linecap:butt;stroke-linejoin:miter;stroke-opacity:1" />
    <path
       sodipodi:nodetypes="ccccc"
       inkscape:connector-curvature="0"
       id="path3748"
       d="m 632.48879,739.5868 c 34.96599,-68.28513 87.26538,-87.04624 144.55445,-91.55115 l 31.32013,32.52475 c -84.31869,10.54221 -128.20835,34.13721 -161.41914,63.84488 z"
       style="display:inline;fill:#f3f3cf;fill-opacity:1;stroke:#806600;stroke-width:1px;stroke-linecap:butt;stroke-linejoin:miter;stroke-opacity:1" />
    <path
       sodipodi:nodetypes="ccsc"
       inkscape:connector-curvature="0"
       id="path3750"
       d="m 618.03334,741.99604 c 0.4627,-53.50386 -78.35721,-79.10242 -67.45874,-118.0528 -9.64554,11.58481 -6.60333,27.51609 5.95323,43.43264 17.14176,21.7287 48.88855,45.26913 61.50551,74.62016 z"
       style="display:inline;fill:#f5f8ad;fill-opacity:1;stroke:#aa8800;stroke-width:1px;stroke-linecap:butt;stroke-linejoin:miter;stroke-opacity:1" />
    <path
       sodipodi:nodetypes="cccc"
       inkscape:connector-curvature="0"
       id="path3752"
       d="M 618.03334,741.99604 C 595.43543,695.09835 554.28552,666.74826 513.30443,635.19818 l -1.27769,16.45133 c 43.49706,19.05796 80.09441,47.46391 106.0066,90.34653 z"
       style="display:inline;fill:#eceea8;fill-opacity:1;stroke:#806600;stroke-width:1px;stroke-linecap:butt;stroke-linejoin:miter;stroke-opacity:1" />
    <path
       sodipodi:nodetypes="ccccc"
       inkscape:connector-curvature="0"
       id="path3754"
       d="m 618.03334,741.99604 c -21.81038,-20.13421 -13.514,-32.28112 -64.15346,-66.79108 -18.01691,-9.55318 -37.84816,-23.96365 -57.92207,-26.83154 l 0.42589,11.49923 c 66.27085,10.1162 94.12756,52.30483 121.64964,82.12339 z"
       style="display:inline;fill:#f1f4b8;fill-opacity:1;stroke:#aa8800;stroke-width:1px;stroke-linecap:butt;stroke-linejoin:miter;stroke-opacity:1" />
    <path
       sodipodi:nodetypes="ccccc"
       inkscape:connector-curvature="0"
       id="path3758"
       d="m 772.15243,647.52162 1.27769,-6.38847 c -36.88094,1.49788 -116.07316,25.89345 -145.2311,98.38236 l 4.28977,0.0713 c 27.59435,-44.30159 59.60896,-85.71363 139.66364,-92.06519 z"
       style="display:inline;fill:#eef3b5;fill-opacity:1;stroke:#d4aa00;stroke-width:1px;stroke-linecap:butt;stroke-linejoin:miter;stroke-opacity:1" />
    <path
       sodipodi:nodetypes="cccc"
       inkscape:connector-curvature="0"
       id="path3760"
       d="m 628.19902,739.51551 c 15.70281,-68.1755 78.6945,-96.20952 135.86135,-108.17801 -1.80542,3.54915 -2.42673,7.0983 -2.98128,10.64745 -81.76428,15.16254 -111.70528,54.31733 -132.88007,97.53056 z"
       style="display:inline;fill:#eaea90;fill-opacity:1;stroke:#d4aa00;stroke-width:1px;stroke-linecap:butt;stroke-linejoin:miter;stroke-opacity:1" />
    <path
       sodipodi:nodetypes="cccc"
       inkscape:connector-curvature="0"
       id="path3762"
       d="m 628.19902,739.51551 c 14.03752,-45.84321 44.71109,-84.01687 116.27006,-103.91903 -5.33314,-4.54291 3.27781,-9.51171 2.98129,-14.05462 -68.24647,21.03062 -110.92573,64.92985 -119.25135,117.97365 z"
       style="display:inline;fill:#f6eca8;fill-opacity:1;stroke:#d4aa00;stroke-width:1px;stroke-linecap:butt;stroke-linejoin:miter;stroke-opacity:1" />
    <path
       sodipodi:nodetypes="cccccccccc"
       inkscape:connector-curvature="0"
       id="path3743"
       d="m 457.81882,678.15116 136.12211,68.66336 v 0 l 53.0033,-2.40924 162.62376,-62.64026 v 0 c -141.47421,19.28622 -158.89018,48.48911 -162.92492,67.45874 8.43234,-9.63696 -42.66363,-13.76428 -52.70214,-2.40924 L 577.36501,727.20559 C 553.19578,706.04073 504.40573,689.70845 457.81882,678.15116 Z"
       style="display:inline;fill:#7c7d5f;fill-opacity:1;stroke:none;stroke-width:1px;stroke-linecap:butt;stroke-linejoin:miter;stroke-opacity:1" />
    <path
       sodipodi:nodetypes="ccccccccccccc"
       inkscape:connector-curvature="0"
       id="path3765"
       d="m 425.59523,661.88878 c 52.01671,26.7085 109.26399,51.45553 164.12953,77.09571 1.01113,1.50063 2.12403,1.57194 0.30116,4.21617 18.78856,4.8789 40.00382,2.52132 62.18853,0.90347 -0.64182,-4.2845 -0.14865,-5.03782 3.16213,-7.52888 56.883,-22.56898 106.43726,-40.57012 172.56187,-67.7599 4.42783,1.14003 5.5698,3.59442 6.02311,6.32426 -16.32514,51.34443 -35.42064,102.13479 -48.18482,154.19141 -51.76311,12.9639 -91.55115,30.71782 -137.32673,46.07673 -14.77342,16.62614 -39.9892,10.57685 -49.08828,-0.90346 L 492.15051,826.92178 c -20.91927,-53.70599 -47.40984,-106.35795 -72.12665,-160.06394 1.48918,-0.65683 2.46076,-4.16913 5.57137,-4.96906 z"
       style="display:inline;fill:#803f23;fill-opacity:1;stroke:#552200;stroke-width:1px;stroke-linecap:butt;stroke-linejoin:miter;stroke-opacity:1" />
    <path
       sodipodi:nodetypes="ccccccccccccc"
       inkscape:connector-curvature="0"
       id="path3769"
       d="m 420.02386,666.85784 165.5854,76.06485 c 0.17522,2.55539 -1.02885,5.11077 3.40718,7.66616 24.80148,6.49083 46.98027,3.53996 68.99542,0 4.92607,-2.50749 1.65649,-2.73873 2.55538,-5.74962 52.56134,-28.86488 116.95084,-48.27258 173.39432,-69.69962 -0.85289,-2.10809 -1.83273,-4.21617 -6.02311,-6.32426 l -172.56187,67.7599 c -1.72401,1.93537 -5.09803,2.45645 -3.16213,7.52888 -21.30096,3.41327 -42.02329,3.06543 -62.18853,-0.90347 l -0.30116,-4.21617 C 534.90019,713.63011 479.40329,690.2927 425.59523,661.88878 Z"
       style="display:inline;fill:#cf8269;fill-opacity:1;stroke:#de8787;stroke-width:1px;stroke-linecap:butt;stroke-linejoin:miter;stroke-opacity:1" />
    <path
       sodipodi:nodetypes="ccccccccc"
       inkscape:connector-curvature="0"
       id="path3773"
       d="m 586.30604,747.5773 c 2.03363,29.45516 11.27519,85.80486 13.05569,126.92699 21.37234,15.78532 36.51375,12.31138 49.08828,0.90346 4.03908,-43.34401 8.07815,-86.4678 12.11723,-130.56852 1.14361,4.79161 -3.82878,6.96961 -5.79297,6.79377 0.46509,43.11983 -6.97464,83.90773 -9.93812,125.58168 -23.86738,10.17686 -30.79563,2.1203 -41.86056,-1.20462 -4.66023,-41.25825 -10.32853,-83.04045 -13.95915,-125.42121 z"
       style="display:inline;fill:#854d33;fill-opacity:1;stroke:none;stroke-width:1px;stroke-linecap:butt;stroke-linejoin:miter;stroke-opacity:1" />
    <path
       sodipodi:nodetypes="csscc"
       inkscape:connector-curvature="0"
       id="path3783"
       d="m 593.9486,769.25029 c 5.44811,0.25519 10.90404,3.69919 19.02079,5.09271 13.01689,2.23479 31.34319,0.3954 39.21654,-5.15675 4.33959,-3.06021 5.15099,-0.34331 4.99758,-1.59203 -28.54964,26.85907 -80.93826,-1.02613 -63.23491,1.65607 z"
       style="display:inline;fill:#914a37;fill-opacity:1;stroke:none;stroke-width:1px;stroke-linecap:butt;stroke-linejoin:miter;stroke-opacity:1" />
    <path
       sodipodi:nodetypes="cccccc"
       inkscape:connector-curvature="0"
       id="path3785"
       d="m 595.44671,802.52822 c -2.95007,11.40516 59.84874,8.38078 56.61716,2.71039 v 3.31271 c -8.72655,3.53615 -17.02647,7.34379 -34.33168,5.42079 -8.18721,-1.62834 -17.99185,-2.44797 -21.68317,-6.32426 z"
       style="display:inline;fill:#9a4e43;fill-opacity:1;stroke:none;stroke-width:1px;stroke-linecap:butt;stroke-linejoin:miter;stroke-opacity:1" />
    <path
       sodipodi:nodetypes="ccccc"
       inkscape:connector-curvature="0"
       id="path3787"
       d="m 597.85595,827.52409 c 21.07739,8.5514 48.01828,1.5914 51.19637,-0.6023 l -0.90347,4.21616 c -15.81064,4.20621 -33.20235,5.20171 -49.76588,-0.15057 z"
       style="display:inline;fill:#8a4035;fill-opacity:1;stroke:none;stroke-width:1px;stroke-linecap:butt;stroke-linejoin:miter;stroke-opacity:1" />
    <path
       sodipodi:nodetypes="cccccc"
       inkscape:connector-curvature="0"
       id="path3789"
       d="m 601.58042,852.80428 c 16.06207,10.82268 34.32068,4.3516 45.3581,1.06474 l -1.2777,3.83308 c -5.78204,2.80567 -12.85507,4.83674 -24.27616,4.25898 -11.8276,-0.2218 -16.84415,-2.71395 -20.23014,-5.74962 z"
       style="display:inline;fill:#773e21;fill-opacity:1;stroke:none;stroke-width:1px;stroke-linecap:butt;stroke-linejoin:miter;stroke-opacity:1" />
    <path
       sodipodi:nodetypes="ccccc"
       inkscape:connector-curvature="0"
       id="path3791"
       d="m 602.85811,867.7107 c 20.01911,7.30787 23.93402,5.7406 42.37682,0.21295 l -0.63885,3.83308 c -11.73079,1.41036 -10.50217,9.30042 -41.52502,1.06474 z"
       style="display:inline;fill:#904b32;fill-opacity:1;stroke:none;stroke-width:1px;stroke-linecap:butt;stroke-linejoin:miter;stroke-opacity:1" />
    <path
       sodipodi:nodetypes="cc"
       inkscape:connector-curvature="0"
       id="path3827"
       d="m 551.59585,687.30913 c -2.27978,-1.25555 -35.34172,-23.81566 -61.02942,-24.17377"
       style="fill:none;stroke:#aa8800;stroke-width:0.10005364px;stroke-linecap:butt;stroke-linejoin:miter;stroke-opacity:1" />
    <path
       style="fill:none;stroke:#aa8800;stroke-width:0.10005364px;stroke-linecap:butt;stroke-linejoin:miter;stroke-opacity:1"
       d="m 558.82357,699.35533 c -2.27978,-1.25555 -35.34172,-23.81566 -61.02942,-24.17377"
       id="path3837"
       inkscape:connector-curvature="0"
       sodipodi:nodetypes="cc" />
    <path
       sodipodi:nodetypes="cc"
       inkscape:connector-curvature="0"
       id="path3839"
       d="m 527.63878,692.16748 c -2.42686,-0.94027 -38.20234,-18.88924 -63.70831,-15.8181"
       style="fill:none;stroke:#aa8800;stroke-width:0.10005364px;stroke-linecap:butt;stroke-linejoin:miter;stroke-opacity:1" />
    <path
       sodipodi:nodetypes="cc"
       inkscape:connector-curvature="0"
       id="path3841"
       d="m 632.48879,739.5868 c 17.71204,-19.66801 74.09627,-89.54286 147.95781,-84.9951"
       style="fill:none;stroke:#d3bc5f;stroke-width:0.36121166;stroke-linecap:butt;stroke-linejoin:miter;stroke-miterlimit:4;stroke-dasharray:none;stroke-opacity:1" />
    <path
       style="fill:none;stroke:#d3bc5f;stroke-width:0.1805364;stroke-linecap:butt;stroke-linejoin:miter;stroke-miterlimit:4;stroke-dasharray:none;stroke-opacity:1"
       d="m 696.87426,689.65768 c 12.09814,-7.19311 40.38964,-30.19277 90.84049,-28.52954"
       id="path4648"
       inkscape:connector-curvature="0"
       sodipodi:nodetypes="cc" />
    <path
       sodipodi:nodetypes="cc"
       inkscape:connector-curvature="0"
       id="path4650"
       d="m 671.47693,711.65411 c 11.73738,-7.60847 49.10198,-34.63918 98.0484,-32.8799"
       style="fill:none;stroke:#d3bc5f;stroke-width:0.18288636;stroke-linecap:butt;stroke-linejoin:miter;stroke-miterlimit:4;stroke-dasharray:none;stroke-opacity:1" />
  </g>
  <g
     id="g5677"
     transform="matrix(1.4688854,0,0,1.6591558,-569.83165,-49.917646)"
     style="stroke:none;stroke-width:1.2811278;stroke-miterlimit:4;stroke-dasharray:none">
    <path
       inkscape:connector-curvature="0"
       d="m 513.87726,223.96767 c -0.68658,-2.06897 -1.01784,-4.20847 -1.20476,-6.37335 -0.18391,-2.41392 -0.20181,-4.83728 -0.20576,-7.25712 -0.0115,-1.97626 -0.0125,-3.95255 -0.0242,-5.9288 -0.0483,-1.96408 0.0763,-3.92021 0.23841,-5.87587 0.0803,-1.50208 0.38786,-2.97645 0.75049,-4.43133 0.45371,-1.70582 1.22641,-3.30151 1.92452,-4.9155 0.73459,-1.56628 1.48785,-3.12897 2.38443,-4.60882 0.93649,-1.44853 2.15926,-2.66354 3.34433,-3.90154 0.98868,-1.12385 2.0854,-2.1351 3.15736,-3.17502 0.82075,-0.80354 1.60799,-1.6389 2.4915,-2.37325 0.9758,-0.93072 2.13706,-1.62132 3.20817,-2.43109 1.36382,-0.89819 2.61846,-1.95008 3.97983,-2.84959 0.38503,-0.24005 1.10778,-0.69437 1.49389,-0.9196 9.93811,-5.79722 9.43571,-5.45607 1.63953,-0.96147 -0.28213,0.16265 0.5576,-0.33677 0.83974,-0.4994 2.50769,-1.44552 5.01977,-2.88332 7.52966,-4.32497 3.43185,-2.01521 -2.02968,1.19818 -4.58637,2.58684 -0.36775,0.19974 0.6918,-0.47198 1.04013,-0.70429 0.47625,-0.31764 1.64992,-1.08926 2.14435,-1.37925 2.51762,-1.47657 5.04855,-2.93003 7.57282,-4.39505 0.31313,-0.17767 0.62625,-0.35534 0.93938,-0.53301 -1.91564,1.10761 -3.82473,2.22675 -5.74691,3.32283 -0.258,0.14712 0.50299,-0.31624 0.75373,-0.47556 0.65376,-0.41541 1.30543,-0.83423 1.95844,-1.25082 1.20191,-0.74911 2.37133,-1.54704 3.54486,-2.33975 1.62064,-1.20077 2.98978,-2.66204 4.28266,-4.20124 1.37236,-1.39161 2.59478,-2.91271 3.83019,-4.42485 0.88898,-1.10661 1.70405,-2.26453 2.44475,-3.47564 0.95039,-1.25007 1.69683,-2.61392 2.41665,-4.00609 0.9645,-1.7808 1.785,-3.63473 2.62504,-5.47668 0.9362,-1.97021 1.72243,-4.01172 2.49072,-6.05342 0.70011,-1.91595 1.10662,-3.91889 1.63239,-5.88564 0.54689,-1.72092 0.86769,-3.48872 1.0359,-5.28345 0.0984,-1.52804 0.27243,-3.05601 0.51673,-4.56763 0.28447,-1.27288 0.36546,-2.58146 0.71513,-3.83812 0.0657,-0.18804 0.13147,-0.37608 0.19721,-0.56413 0,0 7.04719,-3.30367 7.04719,-3.30367 v 0 c -0.0693,0.18188 -0.1385,0.36375 -0.20774,0.54563 -0.47899,1.19757 -0.47864,2.49595 -0.78408,3.7437 -0.29038,1.48455 -0.45133,3.00462 -0.56616,4.51144 -0.13773,1.84561 -0.43015,3.67322 -1.01304,5.43503 -0.57079,1.97063 -0.895,4.00864 -1.60187,5.94109 -0.74429,2.06596 -1.56678,4.11211 -2.46784,6.11132 -0.85924,1.83468 -1.61607,3.72042 -2.58872,5.50031 -0.72505,1.38314 -1.30302,2.86238 -2.35817,4.03923 -0.75632,1.23323 -1.50594,2.45787 -2.41918,3.5851 -1.26264,1.50619 -2.43492,3.09562 -3.8661,4.44976 -1.30848,1.53225 -2.56603,3.0803 -4.15414,4.34157 -1.1059,0.89542 -2.36489,1.5904 -3.53486,2.39844 -3.65143,2.2766 -7.26376,4.61592 -11.0884,6.60493 1.84351,-1.07872 3.68175,-2.16662 5.53056,-3.23614 0.36659,-0.21207 -0.72488,0.43844 -1.08365,0.66363 -0.35836,0.22494 -0.71414,0.45408 -1.06761,0.68671 -3.11496,2.05012 -6.32139,3.95691 -9.57499,5.77718 1.88436,-1.10359 3.76768,-2.209 5.6531,-3.31077 0.27973,-0.16346 -0.55627,0.33242 -0.83602,0.49584 -2.46845,1.44199 -4.94257,2.87416 -7.40857,4.32039 -1.92225,1.12734 3.85033,-2.24458 5.77731,-3.36371 0.5026,-0.29189 -1.96548,1.15078 -1.4918,0.903 -1.40166,0.82972 -2.59589,1.92395 -3.98809,2.76498 -0.55027,0.44664 -1.10299,0.88072 -1.69044,1.27756 -0.35339,0.23874 -0.74265,0.42455 -1.07952,0.68635 -0.15777,0.12262 -0.28716,0.27831 -0.43075,0.41747 -0.84188,0.77849 -1.73535,1.48366 -2.53046,2.31939 -1.01053,1.11458 -2.24934,1.99979 -3.17828,3.19733 -1.21481,1.16975 -2.37222,2.40467 -3.41143,3.73508 -0.91513,1.45219 -1.71011,2.96824 -2.44607,4.52103 -0.71279,1.56142 -1.42401,3.13899 -1.94334,4.77631 -0.36372,1.42915 -0.73875,2.8683 -0.85023,4.34428 -0.19036,1.93185 -0.32412,3.85809 -0.24408,5.80114 -0.0187,1.98546 -0.0314,3.97097 -0.0383,5.95651 0.0116,2.40153 0.005,4.80549 0.16974,7.20271 0.18344,2.08178 0.45144,4.16823 1.21529,6.1284 0,0 -6.80412,3.80312 -6.80412,3.80312 z"
       id="path5548"
       style="fill:#cdde87;fill-opacity:1;stroke:none;stroke-width:1.2811278;stroke-miterlimit:4;stroke-dasharray:none" />
    <g
       id="g5658"
       style="stroke:none;stroke-width:1.2811278;stroke-miterlimit:4;stroke-dasharray:none">
      <path
         style="fill:#cdde87;fill-opacity:1;stroke:none;stroke-width:1.2811278;stroke-miterlimit:4;stroke-dasharray:none"
         id="path5510"
         d="m 510.36537,212.56359 c -0.32102,-1.22405 -0.50458,-2.46772 -0.77908,-3.69887 -0.33676,-1.256 -0.93399,-2.45263 -1.41768,-3.67386 -0.37232,-1.21281 -0.88859,-2.37206 -1.56505,-3.48946 -0.5408,-0.88304 -1.07179,-1.77035 -1.84863,-2.52908 -0.73647,-0.66398 -1.37515,-1.39066 -2.03999,-2.10389 -0.74363,-0.79727 -1.64821,-1.47335 -2.55475,-2.14073 -0.77554,-0.62503 -1.68677,-1.145 -2.57488,-1.6608 -0.8702,-0.56924 -1.7703,-1.09111 -2.6995,-1.59201 -0.86938,-0.60713 -1.92401,-0.99329 -2.95862,-1.37436 -1.25117,-0.53899 -2.57607,-0.95274 -3.89588,-1.36447 -1.40397,-0.4606 -2.79352,-0.95255 -4.24117,-1.31372 -1.44668,-0.46532 -2.93418,-0.74812 -4.47066,-0.90669 -1.9892,-0.15113 -3.98995,-0.15 -5.98587,-0.15642 -1.95044,-0.006 -3.90089,0.006 -5.85126,0.0195 -1.25894,-0.004 -2.51993,0.0586 -3.77298,-0.0535 -2.00207,-0.32065 -3.98537,-0.71634 -5.98951,-1.03126 -1.6136,-0.12478 -3.07682,-0.67387 -4.55989,-1.16344 -1.75274,-0.56061 -3.47986,-1.17353 -5.22053,-1.75885 -1.23733,-0.50026 -2.57896,-0.78848 -3.81841,-1.2836 -0.87922,-0.35122 -1.08808,-0.48715 -1.91802,-0.91924 -1.64795,-0.96146 -3.33751,-1.86199 -4.91013,-2.90813 -1.36189,-0.78254 -2.25954,-1.9354 -3.39487,-2.90203 -1.20748,-0.93026 -2.47748,-1.78182 -3.46214,-2.88281 -0.93947,-1.08715 -1.71427,-2.26438 -2.49366,-3.43242 -0.63572,-1.15567 -1.15946,-2.35152 -1.66687,-3.54887 -0.46196,-1.00138 -0.83436,-2.02323 -1.01305,-3.08503 -0.1282,-0.91851 -0.12507,-1.84463 -0.13238,-2.76784 0.0473,-0.58195 0.0127,-0.29655 0.10158,-0.85635 0,0 5.78142,-2.34022 5.78142,-2.34022 v 0 c -0.10845,0.52341 -0.0581,0.26102 -0.15094,0.78716 -0.004,0.90386 -0.008,1.80955 0.0891,2.71071 0.14832,1.03228 0.46233,2.03438 0.92578,3.00266 0.4782,1.17587 1.0066,2.33866 1.60867,3.47548 0.74452,1.15516 1.52777,2.29938 2.44654,3.36738 0.97887,1.07485 2.24549,1.9012 3.4115,2.83281 1.09954,0.96383 2.03315,2.05749 3.34604,2.84683 1.54629,1.0306 3.19774,1.93909 4.8335,2.86929 1.8005,0.89066 3.74881,1.46599 5.68259,2.12721 1.75438,0.58022 3.49964,1.17949 5.26664,1.73345 1.44345,0.48639 2.90109,0.92919 4.45716,1.10245 1.98859,0.3442 3.97072,0.74519 5.98848,0.95249 1.2444,0.0406 2.48996,0.012 3.73513,0.0264 1.93537,0.008 3.87076,0.0108 5.80614,0.0121 2.02559,0.0105 4.05853,7e-5 6.07398,0.19012 1.56033,0.19614 3.0714,0.52327 4.55565,0.96952 1.43656,0.4047 2.83463,0.89233 4.24906,1.34577 1.32805,0.43238 2.67294,0.83692 3.94272,1.37884 1.04995,0.41152 2.11531,0.81297 3.00855,1.43815 0.94293,0.50054 1.83499,1.0497 2.72661,1.6101 0.88992,0.54607 1.83173,1.05261 2.60641,1.70989 0.92962,0.6916 1.83025,1.41499 2.60563,2.22789 0.6647,0.70659 1.33647,1.40477 2.04455,2.0815 0.78867,0.80384 1.3366,1.72923 1.90164,2.64829 0.6642,1.14737 1.23815,2.32187 1.58699,3.56519 0.48119,1.24629 1.11696,2.45354 1.47154,3.73007 0.25848,1.2105 0.41867,2.43817 0.80548,3.62678 0,0 -5.67272,2.54989 -5.67272,2.54989 z"
         inkscape:connector-curvature="0" />
      <path
         style="fill:#cdde87;fill-opacity:1;stroke:none;stroke-width:1.2811278;stroke-miterlimit:4;stroke-dasharray:none"
         id="path5512"
         d="m 509.90699,213.92739 c 0.21753,-2.04923 0.59804,-4.08162 0.97618,-6.10693 0.31865,-1.71207 0.95134,-3.31836 1.71127,-4.87259 0.61988,-1.29205 1.47842,-2.38788 2.55477,-3.3174 0.96597,-0.82938 1.91688,-1.68237 2.96783,-2.40244 23.85389,-13.84296 -4.32496,2.51266 1.54796,-0.94415 2.40032,-1.41284 4.79458,-2.83654 7.21422,-4.21562 0.40825,-0.23268 0.87098,-0.35146 1.30698,-0.5259 1.80233,-0.74327 3.59092,-1.50919 5.422,-2.18007 2.77186,-0.8367 5.53612,-1.66215 8.35206,-2.3378 4.39563,-1.06407 8.83573,-1.92565 13.25354,-2.88879 3.09362,-0.80314 6.16475,-1.67912 9.29631,-2.32205 3.72099,-0.78689 7.40893,-1.71373 11.14737,-2.41502 2.63885,-0.68482 5.42214,-0.73618 8.01692,-1.5741 2.94041,-0.91788 12.65752,-6.75946 1.18459,-0.12047 2.55924,-1.48098 5.10911,-2.97846 7.67771,-4.44294 1.65104,-0.94134 0.40927,-0.1212 1.99426,-0.98347 0.29331,-0.15957 1.14401,-0.68937 0.8524,-0.52669 -5.83969,3.25791 -7.57159,4.67861 -5.00851,2.66862 1.94938,-1.3642 3.79345,-2.83911 5.45973,-4.54232 1.29829,-1.37767 2.61059,-2.76274 3.72875,-4.29511 0.95324,-1.58407 1.77069,-3.24199 2.71732,-4.83063 1.10439,-1.77943 2.11584,-3.61214 3.10126,-5.46015 0.98439,-2.24506 1.79584,-4.5606 2.74321,-6.82226 0.76889,-1.79838 1.51151,-3.60618 2.32994,-5.3827 0.71584,-1.48644 1.2832,-3.03778 1.88585,-4.57257 0.0912,-0.24516 0.18234,-0.49032 0.27351,-0.73548 0,0 7.01455,-3.28877 7.01455,-3.28877 v 0 c -0.09,0.25199 -0.17995,0.50398 -0.26993,0.75597 -0.60796,1.53955 -1.17755,3.09566 -1.85253,4.60656 -0.8281,1.78998 -1.68459,3.56391 -2.41844,5.39655 -0.97168,2.2632 -1.83462,4.56728 -2.70426,6.87151 -0.94843,1.86726 -1.9608,3.70161 -3.05146,5.48835 -0.95464,1.5877 -1.83661,3.20724 -2.69393,4.84995 -0.9634,1.6758 -2.45047,3.01088 -3.72449,4.44752 -1.60676,1.7594 -3.39773,3.31983 -5.39059,4.627 -2.95326,2.44422 -0.70978,0.65046 -8.12565,5.0936 -0.64503,0.38646 -1.14604,0.59785 -1.81611,0.94228 -0.33263,0.17099 -1.31256,0.71751 -0.99117,0.526 1.78351,-1.06278 3.58566,-2.09358 5.3785,-3.14037 -4.65937,2.70897 -9.2618,5.7855 -14.38531,7.58417 -2.61593,0.64098 -5.32405,0.82475 -7.9494,1.43728 -3.74296,0.71572 -7.43585,1.65718 -11.16285,2.45053 -3.09427,0.6974 -6.14316,1.57151 -9.23627,2.27449 -4.43241,0.92606 -8.87537,1.81005 -13.26497,2.92995 -2.83111,0.73361 -5.62883,1.58363 -8.40894,2.49299 -1.83609,0.70843 -3.64334,1.48675 -5.45828,2.24787 -2.47009,1.09852 -6.19828,3.35574 4.79223,-2.94517 0.18194,-0.10431 -0.3271,0.26549 -0.50731,0.3728 -2.37565,1.41449 -4.79581,2.75312 -7.15756,4.19096 -2.02365,1.23201 4.09539,-2.38222 6.14308,-3.57334 -1.13574,0.57945 -2.08561,1.46028 -3.03533,2.30273 -1.12475,0.87701 -2.00286,1.7251 -2.68534,3.01006 -0.74553,1.52279 -1.51659,3.02394 -1.85061,4.70991 -0.3881,1.96069 -0.75957,3.93324 -0.94438,5.92465 0,0 -6.95068,3.563 -6.95068,3.563 z"
         inkscape:connector-curvature="0" />
      <path
         style="fill:#cdde87;fill-opacity:1;stroke:none;stroke-width:1.2811278;stroke-miterlimit:4;stroke-dasharray:none"
         id="path5544"
         d="m 511.85439,223.43162 c -0.20696,-1.73664 -0.46454,-3.47435 -0.80647,-5.18986 -0.28549,-1.39308 -0.57849,-2.77529 -0.98519,-4.138 -0.49387,-1.3945 -0.90429,-2.80896 -1.14252,-4.27023 -0.15962,-1.11407 -0.17457,-2.24101 -0.18329,-3.36432 -0.006,-1.10659 0.007,-2.21312 0.0132,-3.31967 0.003,-1.27672 0.008,-2.55339 0.005,-3.83012 -0.008,-1.18729 -0.003,-2.37455 -3.9e-4,-3.56183 -3.4e-4,-1.17282 -0.004,-2.34563 -0.006,-3.51845 -0.0236,-1.05405 0.046,-2.11185 -0.0432,-3.16305 -0.0886,-1.28366 -0.59377,-2.44064 -1.03969,-3.62597 -0.57925,-2.07279 -1.51309,-3.99979 -2.3635,-5.96493 -0.69043,-1.8183 -1.68671,-3.48967 -2.55009,-5.22532 -0.79001,-1.76655 -2.06434,-3.24516 -3.17967,-4.80703 -1.07998,-1.72454 -2.508,-3.14641 -3.85399,-4.64837 -1.60248,-1.54078 -2.80492,-3.41126 -4.05278,-5.23712 -0.93462,-1.48641 -2.10332,-2.79289 -3.19252,-4.16008 -1.10075,-1.35702 -2.41701,-2.47844 -3.69649,-3.65223 -1.15185,-1.15952 -2.44032,-2.16595 -3.76382,-3.11709 -1.41389,-1.25161 -2.92735,-2.37941 -4.35141,-3.6181 -1.11217,-1.11662 -2.43594,-1.98814 -3.54266,-3.1042 -1.21429,-1.35291 -2.20948,-2.8955 -3.25728,-4.38136 -1.08171,-1.47033 -2.35512,-2.79578 -3.39899,-4.29183 -1.01128,-1.13025 -1.67518,-2.48756 -2.49859,-3.74546 -0.96822,-1.21204 -1.89338,-2.45365 -2.74295,-3.75376 -0.7841,-1.26972 -1.30239,-2.65919 -1.61926,-4.11318 -0.28855,-1.12973 -0.75106,-2.1954 -1.01555,-3.33398 -0.23066,-1.21419 -0.24762,-2.45796 -0.2583,-3.69041 -0.008,-1.23984 -0.008,-2.47972 -0.008,-3.71958 1.3e-4,-0.73806 5e-5,-0.37074 2.5e-4,-1.10198 0,0 6.93492,-3.55349 6.93492,-3.55349 v 0 c -0.002,0.73282 -8.8e-4,0.36467 -0.004,1.10446 -0.006,1.23893 -0.0172,2.47789 -0.0103,3.71683 0.0165,1.1812 0.0101,2.37047 0.20138,3.53949 0.23473,1.1539 0.70113,2.22099 1.00864,3.35264 0.25128,1.37508 0.71654,2.67414 1.44699,3.87129 0.84382,1.30794 1.81775,2.51263 2.75706,3.74992 0.79768,1.26391 1.5021,2.57767 2.47207,3.72561 1.04463,1.49035 2.28432,2.83964 3.36182,4.30736 1.03208,1.44332 2.02307,2.93704 3.23399,4.23507 1.12297,1.07256 2.3843,1.99041 3.49491,3.07962 1.40294,1.22738 2.88529,2.35924 4.31119,3.55889 1.34532,0.97411 2.6567,2.00142 3.82518,3.18879 1.29806,1.20589 2.62149,2.37874 3.75492,3.75156 1.11418,1.37326 2.25438,2.72765 3.18435,4.24008 1.20849,1.81171 2.43732,3.61685 4.00454,5.14078 1.37315,1.51891 2.80484,2.97357 3.91297,4.7141 1.14161,1.59364 2.41749,3.12105 3.24873,4.91008 0.86994,1.74923 1.84672,3.44733 2.54681,5.2772 0.84194,1.97642 1.77311,3.91321 2.41811,5.97026 0.4801,1.23483 1.06575,2.42835 1.17465,3.77284 0.159,1.07418 0.0563,2.16395 0.0825,3.24753 -0.002,1.17479 -0.005,2.34958 -0.006,3.52437 0.003,1.1875 0.008,2.37498 -4.4e-4,3.56248 -0.003,1.27668 8.7e-4,2.55331 -8.7e-4,3.82999 10e-4,1.10279 0.004,2.20555 -0.002,3.30835 10e-4,1.09148 -8.7e-4,2.18588 0.11734,3.27237 0.18984,1.43456 0.5524,2.82906 1.06792,4.18181 0.41863,1.38761 0.77616,2.77533 1.00888,4.20892 0.34528,1.72198 0.53581,3.47486 0.88717,5.19681 0,0 -6.89903,3.6615 -6.89903,3.6615 z"
         inkscape:connector-curvature="0" />
      <path
         style="fill:#cdde87;fill-opacity:1;stroke:none;stroke-width:1.2811278;stroke-miterlimit:4;stroke-dasharray:none"
         id="path5546"
         d="m 488.77964,154.1555 c 0.0544,-1.81138 0.047,-3.62432 0.0363,-5.43635 -0.0701,-1.73601 -0.006,-3.44301 0.34206,-5.14531 0.27656,-1.3481 0.87527,-2.54044 1.59044,-3.69568 0.64178,-0.99663 1.41468,-1.90213 2.2507,-2.73773 2.44965,-2.53388 7.05145,-4.60187 9.48655,-6.01895 -2.0376,1.18173 -8.17726,4.67869 -6.11278,3.54518 2.42318,-1.33046 4.79268,-2.75756 7.18913,-4.13616 0.17608,-0.10129 0.70425,-0.40521 0.52843,-0.30349 -2.03735,1.17868 -4.07104,2.36379 -6.11301,3.53437 -0.20443,0.11719 0.39639,-0.25545 0.60004,-0.37401 2.45132,-1.42714 4.90972,-2.84195 7.36459,-4.26292 1.9884,-1.05183 4.09293,-1.84358 6.18505,-2.65442 2.24823,-0.56965 4.36503,-1.47996 6.46953,-2.43512 1.1397,-0.479 0.72815,-0.2624 1.79674,-0.88593 0.29632,-0.17291 1.18118,-0.69863 0.88397,-0.52727 -10.52223,6.06664 -6.1899,3.6257 -3.90378,2.18833 4.05836,-2.57621 19.29723,-11.25191 5.11678,-3.14596 1.68655,-1.20875 3.23468,-2.59772 4.84782,-3.90202 1.84248,-1.54159 3.75838,-2.99657 5.51901,-4.63387 1.20985,-1.09687 2.25164,-2.34962 3.24931,-3.63886 0.86003,-1.27309 1.64852,-2.60457 2.32969,-3.98332 0.66251,-1.28907 1.2107,-2.61469 1.55141,-4.02543 0,0 6.99168,-3.39068 6.99168,-3.39068 v 0 c -0.30003,1.459225 -0.77523,2.87126 -1.49979,4.17711 -0.59683,1.45717 -1.48911,2.77061 -2.26266,4.13733 -0.96347,1.35687 -2.03011,2.64081 -3.24126,3.78228 -1.74317,1.68449 -3.67397,3.13581 -5.5204,4.70261 -1.61268,1.28817 -3.15549,2.65843 -4.77982,3.92973 -14.70467,8.78237 -5.48365,3.24636 -1.56169,1.00022 0.28958,-0.16585 -0.5538,0.37309 -0.83544,0.55224 -0.88763,0.56461 -0.91743,0.55061 -1.8284,1.09165 -0.30248,0.17964 -0.60166,0.36485 -0.90248,0.54728 -3.89381,2.45173 -7.79039,4.95582 -11.98918,6.84051 -2.10508,0.9349 -4.26774,1.68828 -6.46316,2.37988 -2.10094,0.81969 -4.19845,1.66521 -6.16865,2.77522 1.96042,-1.14652 3.91634,-2.30084 5.88125,-3.43955 0.20031,-0.11608 -0.38752,0.254 -0.58705,0.37144 -2.38878,1.40592 -4.7819,2.80441 -7.17756,4.19845 -0.17663,0.10278 -0.71527,0.3953 -0.53903,0.29184 2.03644,-1.1954 8.1684,-4.74228 6.11992,-3.56788 -2.40218,1.37718 -4.78736,2.78415 -7.18104,4.17623 2.03721,-1.1897 4.07442,-2.37939 6.11163,-3.56909 -0.63341,0.4116 -1.44482,0.71882 -1.99491,1.24016 -0.14126,0.13388 -0.24789,0.30047 -0.37183,0.4507 -0.84221,0.79986 -1.62856,1.63121 -2.33349,2.55819 -0.66991,1.12533 -1.43523,2.1645 -1.72746,3.47708 -0.41368,1.72225 -0.51656,3.2265 -0.4328,4.99985 -0.0105,1.79961 -0.0187,3.60018 0.0363,5.39911 0,0 -6.95068,3.56301 -6.95068,3.56301 z"
         inkscape:connector-curvature="0" />
      <path
         style="fill:#cdde87;fill-opacity:1;stroke:none;stroke-width:1.2811278;stroke-miterlimit:4;stroke-dasharray:none"
         id="path5550"
         d="m 557.91002,156.16394 c -1.35869,-1.13503 -2.73292,-2.22177 -3.93344,-3.53358 -1.26833,-1.32565 -2.21292,-2.83841 -2.85964,-4.55318 -0.45923,-1.80964 -1.08131,-3.57177 -1.50787,-5.38981 -0.3678,-1.41925 -0.67783,-2.84853 -0.8231,-4.30866 -0.094,-1.38362 -0.10984,-2.77094 -0.11992,-4.15725 -0.009,-1.15828 8.7e-4,-2.31652 0.006,-3.47476 0.0389,-1.2098 0.006,-2.40826 -0.4557,-3.53783 -0.34454,-1.03325 -1.11928,-1.69371 -1.8748,-2.42031 0,0 6.59755,-4.08851 6.59755,-4.08851 v 0 c 0.83014,0.79685 1.67128,1.5573 2.05838,2.68268 0.51781,1.2128 0.65925,2.50127 0.59801,3.8162 10e-4,1.15737 0.004,2.31471 -0.006,3.47207 -0.005,1.3663 -0.013,2.73438 0.0785,4.09838 0.12394,1.4324 0.37272,2.84536 0.75692,4.23188 0.37812,1.79633 0.98876,3.52823 1.42575,5.31037 0.60798,1.62676 1.54563,3.01993 2.73082,4.28513 1.18052,1.2921 2.55217,2.34893 3.93574,3.41083 0,0 -6.6065,4.15635 -6.6065,4.15635 z"
         inkscape:connector-curvature="0" />
      <path
         style="fill:#cdde87;fill-opacity:1;stroke:none;stroke-width:1.2811278;stroke-miterlimit:4;stroke-dasharray:none"
         id="path5552"
         d="m 567.84384,148.50487 c 1.02384,0.0553 2.09518,0.41854 3.12602,0.32251 0.72173,-0.0672 1.96355,-0.51576 2.59855,-0.72011 3.94502,-1.46114 7.8094,-3.13072 11.71004,-4.70636 1.39558,-0.48709 2.7522,-1.02787 4.05338,-1.72936 0.31038,-0.16733 1.23146,-0.68766 0.92655,-0.51047 -6.33243,3.67993 -7.63524,4.5857 -5.19279,2.92915 1.06976,-0.79882 1.91206,-1.82748 2.68451,-2.90673 0.89204,-1.25141 1.62569,-2.57463 2.2011,-3.99934 0.6228,-1.4743 1.10889,-2.9912 1.55558,-4.52609 0.49247,-1.65351 1.11202,-3.26513 1.68486,-4.89166 0.60953,-1.58185 1.29293,-3.13379 2.07155,-4.63865 0.54561,-1.0217 1.09233,-2.04027 1.66675,-3.04616 0.67221,-0.84618 1.14605,-1.79856 1.66454,-2.73949 0.62986,-1.19558 1.4473,-2.25392 2.30046,-3.29158 0.85568,-1.02506 1.9654,-1.78615 3.03281,-2.56857 1.02869,-0.73783 2.05848,-1.48329 3.03928,-2.28531 3.14842,-2.41408 6.54644,-4.57833 10.18368,-6.15789 0.79102,-0.37616 1.68665,-0.36368 2.49995,-0.65532 0.36845,-0.13213 0.721,-0.30572 1.08582,-0.44766 0.17439,-0.0896 0.34879,-0.17921 0.52318,-0.26882 0,0 -6.08742,4.86377 -6.08742,4.86377 v 0 c -0.18564,0.0759 -0.37129,0.15182 -0.55693,0.22773 -1.16315,0.42978 -2.40222,0.59474 -3.525,1.13806 -2.60405,1.37044 -1.5387,0.82213 5.3097,-3.14635 0.21669,-0.12557 -0.42566,0.26431 -0.63435,0.40292 -0.54197,0.35999 -1.0236,0.79993 -1.59978,1.10691 -0.94719,0.867 -2.00823,1.58548 -3.02108,2.3688 -1.08622,0.70874 -2.12773,1.50448 -3.09773,2.36652 -0.85206,1.01152 -1.75814,1.98142 -2.34996,3.18236 -0.58993,0.89698 -0.85564,1.97508 -1.65945,2.73015 -0.60451,0.9934 -1.15273,2.01421 -1.69143,3.04388 -0.88933,1.42542 -1.48511,3.0094 -2.1734,4.53835 -0.5886,1.59849 -1.13427,3.21529 -1.65429,4.83769 -0.50181,1.53014 -0.89445,3.09639 -1.54311,4.57741 -0.53883,1.48137 -1.20827,2.86873 -2.11752,4.15647 -0.7356,1.15835 -1.56554,2.24165 -2.59763,3.1528 -3.77269,3.09854 -8.36085,5.16277 -12.8971,6.86649 -3.93312,1.5795 -7.82148,3.2819 -11.81656,4.69858 -0.51082,0.13894 -1.01331,0.31381 -1.53247,0.41685 -1.51951,0.30155 -3.03029,-0.0132 -4.54517,-0.16944 0,0 6.37486,-4.52204 6.37486,-4.52204 z"
         inkscape:connector-curvature="0" />
      <ellipse
         style="fill:#cdde87;fill-opacity:1;stroke:none;stroke-width:1.2811278;stroke-miterlimit:4;stroke-dasharray:none"
         id="path5554"
         cx="464.5777"
         cy="121.05441"
         rx="18.546228"
         ry="14.21304" />
      <ellipse
         ry="14.21304"
         rx="18.546228"
         cy="151.17603"
         cx="489.79053"
         id="ellipse5556"
         style="fill:#cdde87;fill-opacity:1;stroke:none;stroke-width:1.2811278;stroke-miterlimit:4;stroke-dasharray:none" />
      <ellipse
         style="fill:#cdde87;fill-opacity:1;stroke:none;stroke-width:1.2811278;stroke-miterlimit:4;stroke-dasharray:none"
         id="ellipse5558"
         cx="539.69092"
         cy="99.387985"
         rx="18.546228"
         ry="14.21304" />
      <ellipse
         ry="14.21304"
         rx="18.546228"
         cy="158.04587"
         cx="425.70792"
         id="ellipse5560"
         style="fill:#cdde87;fill-opacity:1;stroke:none;stroke-width:1.2811278;stroke-miterlimit:4;stroke-dasharray:none" />
      <ellipse
         style="fill:#cdde87;fill-opacity:1;stroke:none;stroke-width:1.2811278;stroke-miterlimit:4;stroke-dasharray:none"
         id="ellipse5562"
         cx="558.60052"
         cy="155.40363"
         rx="18.546228"
         ry="14.21304" />
      <ellipse
         ry="14.21304"
         rx="18.546228"
         cy="107.31473"
         cx="620.05676"
         id="ellipse5564"
         style="fill:#cdde87;fill-opacity:1;stroke:none;stroke-width:1.2811278;stroke-miterlimit:4;stroke-dasharray:none" />
      <ellipse
         style="fill:#cdde87;fill-opacity:1;stroke:none;stroke-width:1.2811278;stroke-miterlimit:4;stroke-dasharray:none"
         id="ellipse5566"
         cx="624.78418"
         cy="142.1924"
         rx="18.020962"
         ry="10.513894" />
      <ellipse
         ry="9.192771"
         rx="15.657259"
         cy="114.97723"
         cx="577.2475"
         id="ellipse5568"
         style="fill:#cdde87;fill-opacity:1;stroke:none;stroke-width:1.2811278;stroke-miterlimit:4;stroke-dasharray:none" />
      <ellipse
         style="fill:#cdde87;fill-opacity:1;stroke:none;stroke-width:1.2811278;stroke-miterlimit:4;stroke-dasharray:none"
         id="path5602"
         cx="551.8728"
         cy="121.1095"
         rx="11.293244"
         ry="6.341393" />
    </g>
  </g>
</svg>
